<?xml version="1.0" encoding="utf-8"?>
<!-- Generator: Adobe Illustrator 21.0.2, SVG Export Plug-In . SVG Version: 6.00 Build 0)  -->
<svg version="1.1" id="Layer_1" xmlns="http://www.w3.org/2000/svg" xmlns:xlink="http://www.w3.org/1999/xlink" x="0px" y="0px"
	 viewBox="0 0 1280 720" style="enable-background:new 0 0 1280 720;" xml:space="preserve">
<style type="text/css">
	.st0{fill:#C7C9C5;}
	.st1{fill:#8D3111;}
	.st2{fill:none;stroke:#000000;stroke-miterlimit:10;}
	.st3{fill:#938562;}
	.st4{fill:#BFC6BA;}
	.st5{fill:#B4810B;}
	.st6{fill:#FFFFFF;}
	.st7{fill:#A7A8A7;}
	.st8{fill:#471005;}
	.st9{fill:#918263;}
	.st10{fill:none;}
</style>
<path class="st0" d="M883.2,300.7c-9.3,11.3-20.3-4.3-20.3-4.3c-5-4.3-8-23.3-8-23.3c-2-21.3-10-39.7-10-39.7
	c-12,31.6-22.7,38-22.7,38c-6.5,5.5-11.3,6.1-14.6,5.1c-4.4-1.4-6.2-5.7-6.4-6c17,9.6,15.7-58.7,15.7-58.7
	c3.4-12.9,8.7-18.5,13.6-20.7c6.7-2.9,12.7,0.4,12.7,0.4v6.7h12l8.7,5.3c24.7,15,10.7,63.7,10.7,63.7
	C867.5,301.7,883.2,300.7,883.2,300.7z"/>
<path class="st1" d="M952.6,222c-8.3,3-15.7,5.9-22.4,8.7c-4.6-6.9-3.1-14.6-3.1-14.6c19.3,5,25.5-4.8,25.5-4.8
	C958.1,219.7,952.6,222,952.6,222z"/>
<path class="st2" d="M927.1,216.2c-2.3-0.6-4.9-1.4-7.6-2.5"/>
<path d="M914.8,175.3l-1,0.6c0,0-10-17-34.4-28.7c-0.1,0,0,0,0,0l1-0.1C880.3,147.1,902.4,156,914.8,175.3z"/>
<path d="M917.5,165l-1.1,0.7c0,0-12.8-16-20.6-19.8h0l0,0l1.7-0.1c0,0,0,0,0,0C898,146,907.1,151.3,917.5,165z"/>
<path d="M927.5,163l-0.6,0.7c-2.6-5.3-14.1-12.7-14.1-12.7l0.5-0.7C921.2,155.7,927.5,163,927.5,163z"/>
<path class="st0" d="M967.2,136.1c-0.1,0.2-0.1,0.4-0.2,0.6c-0.1,0.2-0.1,0.4-0.2,0.6c-0.5,1.2-1.1,2.4-1.8,3.5
	c0,0.1-0.1,0.1-0.1,0.2c-0.1,0.1-0.2,0.2-0.2,0.3c-0.1,0.1-0.2,0.2-0.2,0.3c-1.3,1.7-3.3,4-6.3,6.4c0,0-0.1,0.1-0.1,0.1c0,0,0,0,0,0
	c0,0,0,0,0,0s0,0,0,0c-0.1-0.3-2.1-5.4-9.8-4.5c0,0,0.3-22,12-18.7c0,0,6.1,1.1,7.4,6.1c0,0,0,0,0,0
	C967.8,132.9,967.7,134.6,967.2,136.1z"/>
<path class="st0" d="M974.6,141.6C974.6,141.6,974.6,141.6,974.6,141.6c-2.5,4.1-5,6.5-7.3,7.9c-0.2,0.1-0.3,0.2-0.4,0.2
	c-0.1,0.1-0.3,0.1-0.4,0.2c-2.3,1.2-5.1,1.8-7.9,0.8c0,0,0,0,0,0c0,0,0,0,0,0c0,0,0-0.1,0-0.1c-0.1-0.7-0.5-3.7-1.9-4.6c0,0,0,0,0,0
	c0,0,0,0,0,0c0,0,0.1-0.1,0.1-0.1c0.8-0.6,3.9-3.1,6.3-6.4c0.1-0.1,0.2-0.2,0.2-0.3c0.1-0.1,0.2-0.2,0.2-0.3c0-0.1,0.1-0.1,0.1-0.2
	c0.6-0.9,0.9-1.4,0.9-1.4c0.4-0.7,0.7-1.4,0.9-2c0.1-0.2,0.1-0.4,0.2-0.6c0.1-0.2,0.1-0.4,0.2-0.6c0.5-1.9,0.6-3.5,0.2-4.8
	c0,0,0,0,0,0C966.1,129.1,976.4,134.1,974.6,141.6z"/>
<path class="st0" d="M977,147.7c0,0-10,13.1-18.9,6.3c0,0,0.3-1.1-0.2-3.4c0,0,0,0,0-0.1c0,0,0,0,0,0c0.4,0.2,3.7,1.3,7.9-0.8
	c0.1-0.1,0.3-0.1,0.4-0.2c0.1-0.1,0.3-0.2,0.4-0.2c3.7-2.1,6.2-5.3,6.2-5.3c0.6-0.9,0.9-1.8,1.1-2.7c0,0,0,0,0,0
	S978.8,145.7,977,147.7z"/>
<path class="st2" d="M843.2,191.3c0,0,6-2.3,11.9-9"/>
<path d="M899.8,197l-0.8,0.6c-7.5-8.9-18.7-6.3-18.7-6.3v-1.6C880.3,189.8,892.1,186.8,899.8,197z"/>
<path class="st0" d="M864.8,149.6c0,0-1.1,12-2,11.6c-1.1-0.4-8.8-8.9-8.8-8.9C857.2,151.3,860.8,150.4,864.8,149.6z"/>
<path class="st2" d="M917.5,189.8c0,0,15.2-10,28-7.8"/>
<path class="st3" d="M960.8,193.2c0,0-4.7-10.7-15.3-11.2c0,0,16-24.3,0-31.8c0,0-10.7-4.9-30.7-4.8c-6.2,0-11.9,0.2-17.3,0.4
	c0.4,0.2,9.5,5.6,19.9,19.2l-1.1,0.7c0,0-12.8-16-20.6-19.8h0c-5.6,0.3-10.8,0.7-15.5,1.3c0,0,22,8.9,34.4,28.2l-1,0.6
	c0,0-10-17-34.4-28.7c-5.3,0.6-10.2,1.4-14.5,2.3c0,0-1.1,12-2,11.6c-1.1-0.4-8.8-8.9-8.8-8.9c-37,11.6-25.3,35.4-23.5,38.6
	c6.7-2.9,12.7,0.4,12.7,0.4v6.7h12l8.7,5.3c24.7,15,10.7,63.7,10.7,63.7c3-4.2,16.1-19.3,55.7-36.3c-4.6-6.9-3.1-14.6-3.1-14.6
	c19.3,5,25.5-4.8,25.5-4.8S967.2,203,960.8,193.2z M846.8,182c-8.6,0-11.5-10.2-11.5-10.2l0.7-1c3.5,9.8,11.3,10.2,11.3,10.2
	L846.8,182z M855.1,182.3l-0.5,0.5c-3.1-16-13.3-17-13.3-17l0.8-0.9c0,0,11.1,1.3,13.2,17L855.1,182.3z M896.1,205.5
	c-15.8,5.2-19.2-8.5-19.2-8.5l0.6-0.9c4.8,13,19.1,8.4,19.1,8.4L896.1,205.5z M899.1,197.6c-7.5-8.9-18.7-6.3-18.7-6.3v-1.6
	c0,0,11.8-3,19.5,7.2L899.1,197.6z M907.5,189.8c0,0-9.2-11.8-22.5-8.8c0,0-14.2,1.5-13.2-9.2c0,0,3,4.8,16,0c0,0,17.4-8.2,19.7,8.2
	C907.5,180,908.5,187.3,907.5,189.8z M926.9,163.7c-2.6-5.3-14.1-12.7-14.1-12.7l0.5-0.7c7.9,5.4,14.2,12.6,14.2,12.6L926.9,163.7z"
	/>
<path class="st3" d="M855.4,182l-0.3,0.3l-0.5,0.5c-3.1-16-13.3-17-13.3-17l0.8-0.9C842.2,165,853.2,166.3,855.4,182z"/>
<path class="st3" d="M907.5,189.8c0,0-9.2-11.8-22.5-8.8c0,0-14.2,1.5-13.2-9.2c0,0,3,4.8,16,0c0,0,17.4-8.2,19.7,8.2
	C907.5,180,908.5,187.3,907.5,189.8z"/>
<path d="M953.2,195.3c-8.4-6.8-26.3,3.7-26.3,3.7l-0.7-1.4c0,0,7.5-3.7,9.2-4.1c0,0,12.8-4.7,18.2,0.8L953.2,195.3z"/>
<path d="M930.2,207.7c16.4,0,15.3-5.3,15.3-5.3c-1.7-6.7-12.4-7.3-12.4-7.3l-0.1,1c0,0,10.4,1.1,11.3,6.6c0,0-0.1,3.6-14,3.9V207.7z
	"/>
<path class="st4" d="M862.8,296.3c-7.5,15.5-15,25.3-21.7,31.5c-11.3,10.5-20.5,10.5-22.8,10.4c-0.3,0-0.5-0.1-0.5-0.1
	c0.2-0.4,0.5-0.8,0.7-1.3c1.2-2.3,2.6-4.6,3.4-6.9c7.5-21.7,1.5-43.6,1.5-43.6l-1.3-15.1c0,0,10.7-6.4,22.7-38c0,0,8,18.4,10,39.7
	C854.8,273,857.8,292,862.8,296.3z"/>
<path class="st1" d="M985.5,380.5c-1.3-65.7-27.1-103.8-34.6-113.5c0,0,0,0,0,0c-0.2-0.3-0.5-0.5-0.7-0.9c0,0,0,0,0,0
	c-5.8-9.1,2.5-44.1,2.5-44.1c-8.3,3-15.7,5.9-22.4,8.7c-39.7,17-52.7,32.1-55.7,36.3c-7,34.7,8.7,33.7,8.7,33.7
	c-9.3,11.3-20.3-4.3-20.3-4.3c-7.5,15.5-15,25.3-21.7,31.5c-11.3,10.5-20.5,10.5-22.8,10.4c-1.9,16.7-5,54.2,6.1,60.2
	c2.6,0,5.2-0.1,7.8-0.2c0.1,0,0.2,0,0.3,0c17.8-0.8,36.5-3.4,50.5-6.2c0,0,7.9,50.1,2.7,84.1c0,0,54.2,4.2,81-1.8
	c0,0,18.7-4,23.6-10.2C992.5,395.2,985.5,380.5,985.5,380.5z"/>
<path class="st5" d="M990.5,464.1c-0.3,10.5-0.8,22.3-1.6,35.4c0,0-7.2,7.5-29.9,11.3l-11.6,1.2l-0.4,0.2h0
	c-5.3,0.4-11.2,0.6-17.8,0.6h0l-19.8-0.9c-1.9-0.2-3.8-0.3-5.8-0.5c-14.3-1.4-30.8-4-49.9-8.1c-0.3,0-0.5-0.1-0.8-0.2l-3.4-0.7
	c0,0,0,0-0.1,0c0,0,0,0-0.1,0c-3.1-0.9-7.3-2.2-11.8-3.8c13.9-54.1-2.4-94.7-4.9-100.4c17.8-0.8,36.5-3.4,50.5-6.2
	c0,0,7.9,50.1,2.7,84.1c0,0,54.2,4.2,81-1.8C966.8,474.2,985.6,470.3,990.5,464.1z"/>
<path class="st2" d="M811.8,489C811.8,489,811.8,489,811.8,489"/>
<path class="st1" d="M814.8,462.5c-4.9,4-23.8-8.5-23.8-8.5c3.2-17.5,5.3-43.9,2.7-58.2c0.1,0,0.1,0,0.2,0c0,0,0.1,0,0.1,0
	c0,0,0.1,0,0.1,0l0.2,0c4.6,0.9,9.3,1.5,14.1,1.9c0,0,0,0,0.1,0c0.1,0,0.1,0,0.2,0c0.5,0,0.9,0.1,1.4,0.1c1,0.1,1.9,0.1,2.6,0.2h0.2
	C812.8,398.1,817.2,460.6,814.8,462.5z"/>
<path class="st6" d="M849.2,502.3c0,0-1.4,3.9-14.1,6.3c0,0-7.4-11.3-16-16.8c10,4,18.3,7.6,18.3,7.6
	C841.4,500.5,845.3,501.4,849.2,502.3z"/>
<path class="st5" d="M837.3,498.4c-8.2-2.9-17.3-6.3-22.4-8.2c-0.4-0.2-0.8-0.3-1.1-0.4c-0.7-0.3-1.3-0.5-2-0.8l0,0
	c-0.6-0.2-0.9-0.4-0.9-0.4c-12.4-4.7-24.8-8.7-26-6.5c0.6-2.2,3.5-13.8,6.2-28.2c0,0,18.8,12.5,23.8,8.5c2.3-1.9-2-64.4-2-64.4
	c3.3,0.2,6.6,0.3,9.9,0.3c0.4,0,0.9,0,1.3,0h0.6c0,0,0,0,0,0c2.6,0,5.2-0.1,7.8-0.2L837.3,498.4z"/>
<path class="st5" d="M837.6,498.5c-0.1,0-0.2-0.1-0.3-0.1l-4.9-100.2c0.1,0,0.2,0,0.3,0C835.2,403.8,851.5,444.4,837.6,498.5z"/>
<path class="st2" d="M990.5,464C990.5,464,990.5,464,990.5,464"/>
<path class="st6" d="M826.8,510c-18.5,5.5-30.5-2-30.5-2c-9-6.5,7.5-14.5,7.5-14.5l0,0c1.5-1,3.7-0.4,6.2,1c0,0,0.1,0,0.1,0.1
	c3.4,2.1,8.6,6.5,16.4,15.1c0,0.1,0.1,0.1,0.1,0.1C826.7,509.9,826.8,509.9,826.8,510C826.8,510,826.8,510,826.8,510z"/>
<path class="st7" d="M835.1,508.6L835.1,508.6l-8.2,1.4c0,0,0,0,0,0c0,0-0.1-0.1-0.1-0.1c0,0-0.1-0.1-0.1-0.2c-0.4-0.4-1-1.2-2-2.2
	c-0.1-0.1-0.3-0.3-0.4-0.5c-2.1-2.3-5.1-5.4-8.3-8.2c-0.4-0.3-0.7-0.6-1.1-0.9c-0.3-0.2-0.6-0.5-0.9-0.7c-0.6-0.5-1.2-0.9-1.8-1.4
	c-0.6-0.4-1.3-0.9-1.9-1.2c0,0-0.1,0-0.1-0.1c-2.5-1.5-4-1.9-5-1.8l6.7-3.8l0,0c0.7,0.3,1.3,0.5,2,0.8c0.3,0.1,0.7,0.3,1.1,0.4
	c1.4,0.5,2.8,1.1,4.1,1.6c0,0,0.1,0,0.1,0C827.7,497.4,835.1,508.6,835.1,508.6z"/>
<path class="st7" d="M852.8,503.1v4.9c-37.8,16.5-56.5,6.8-56.5,6.8V508c0,0,12,7.5,30.5,2l8.2-1.4c12.8-2.5,14.1-6.3,14.1-6.3
	l0.1,0c0,0,0,0,0.1,0c0,0,0,0,0.1,0L852.8,503.1z"/>
<path class="st6" d="M929.3,512.8c-2.2,4.3-10.8,7.2-10.8,7.2c-8.7-3.2-9.2-7.9-9.2-7.9v-0.2c7.2,0.6,13.8,0.9,19.8,0.9h0
	L929.3,512.8z"/>
<path class="st6" d="M967.3,520.3L967.3,520.3c0,0.8-0.2,1.4-0.7,2c0,0-13.7,11.8-41.7,1.3l21.8-11.5h0c1.1-0.1,2.2-0.2,3.3-0.3
	c0.6,0,1.1-0.1,1.7-0.2c0.9-0.1,1.8-0.2,2.6-0.3c1.4-0.2,2.8-0.4,4.1-0.6c0,0,0,0,0,0c0,0,0,0,0,0
	C959.2,511.2,967.2,516,967.3,520.3z"/>
<path class="st7" d="M946.7,512.2l-21.8,11.5l-6.6-3.8c0,0,8.7-2.8,10.8-7.2l-0.2,0C935.5,512.9,941.4,512.7,946.7,512.2z"/>
<path class="st7" d="M967.3,520.4v7.9c-9.7,8.5-32.5,4.1-32.5,4.1c-19.8-4.1-31.5-14.9-31.5-14.9v-6.3c2,0.2,3.9,0.4,5.8,0.5v0.2
	c0,0,0.5,4.8,9.2,7.9l6.6,3.8c28,10.6,41.7-1.3,41.7-1.3C967.1,521.8,967.3,521.1,967.3,520.4z"/>
<path class="st5" d="M717.1,378.9c-25.5,6-46.3,9.7-46.3,9.7c6.3-7.9,5.7-20.1,2.8-31.9c-2-8.1-5.1-16-7.8-22
	c-3-6.8-5.6-11.3-5.6-11.3c13.2-2,26.6-4.9,39.7-8.3c0,0,14.7,17,17.9,40.9l-1.3,0.4l-4,4.7c0,0,2.1,4.8,5.9,3.2
	C718.6,369,718.2,373.9,717.1,378.9z"/>
<path class="st1" d="M735.5,374.3c-6.2,1.7-12.5,3.2-18.4,4.6c1.1-5,1.5-9.9,1.5-14.6c0,0,9.5-10.3,17.5-7.8
	C736,356.5,727.3,372,735.5,374.3z"/>
<path class="st1" d="M822,329.9l-2.5,0.3c-18.3-0.2-37,0.3-37,0.3c-3.9,2.5-6,8.1-6.8,14.9l-9,4.1c0,0-21.3,2.2-26.3,0l-22.4,6.6
	c-3.2-23.9-17.9-40.9-17.9-40.9c56.1-14.6,104.7-37.6,105.7-38c0,0,1.8-0.8,1.8-0.8c3.3,1.1,8.1,0.4,14.6-5.1l1.3,15.1
	C823.5,286.3,829.6,308.2,822,329.9z"/>
<polygon class="st8" points="840.4,328.6 880.3,324.2 880.3,323.5 841.2,327.8 "/>
<path class="st1" d="M822,329.9c-0.8,2.3-2.2,4.6-3.4,6.9c0.5-4.1,0.9-6.6,0.9-6.6L822,329.9z"/>
<path class="st5" d="M824.6,398.4H824c-0.4,0-0.8,0-1.3,0c-3.3,0-6.6-0.1-9.9-0.3h-0.2c-0.9,0-1.7-0.1-2.6-0.2
	c-0.5,0-0.9-0.1-1.4-0.1c-0.1,0-0.1,0-0.2,0c0,0-0.1,0-0.1,0c-5.1-0.3-11.8-1.3-14.1-1.9l-0.2,0c0,0-0.1,0-0.1,0c0,0-0.1,0-0.1,0
	c-0.1,0-0.1,0-0.2,0c0,0,0,0,0,0c-5-1-9.8-2.3-14.3-3.9c0,0-1.6-7.3-2.9-17c0-0.1,0-0.1,0-0.2c-1.2-9.1-2.1-20.2-0.9-29.2
	c0.9-6.8,2.9-12.4,6.8-14.9c0,0,18.7-0.5,37-0.3c0,0-0.4,2.5-0.9,6.6c-0.1,0.4-0.1,0.9-0.2,1.3C816.5,354.9,813.4,392.4,824.6,398.4
	C824.5,398.4,824.5,398.4,824.6,398.4z"/>
<path class="st8" d="M883.2,390.5c41.4-6,52.2-22.7,52.2-22.7c16.5-24.8,5.8-60.3,5.8-60.3h1.2c0,0,16.9,58-25.7,75.2
	c0,0-10.4,3.8-33.7,9.2V390.5z"/>
<path class="st5" d="M670.8,388.7c-10.3-9.9-14.9-20.7-16.4-30.4h1.6l7.9,3.9l3.2-3.5l6.5-1.9C676.6,368.5,677.1,380.8,670.8,388.7z
	"/>
<path class="st5" d="M665.9,334.8c-2.2,0.4-4.7,1.3-7.4,2.8l-3.3,0.3c1.9-8.7,5.1-14.4,5.1-14.4S662.9,328,665.9,334.8z"/>
<path class="st2" d="M655.2,337.9c0,0,0,0.1,0,0.1"/>
<path class="st9" d="M673.7,356.8l-6.5,1.9l-3.2,3.5l-7.9-3.9h-10l-6-3.1l7-12.5l-18-4c3-9.1,19.5,0,19.5,0l6.7-0.6l3.3-0.3
	c2.7-1.6,5.2-2.5,7.4-2.8C668.6,340.8,671.7,348.7,673.7,356.8z"/>
<path class="st0" d="M647,342.6l-7,12.5c-30.5,0-148.2-42.3-148.2-42.3c-19.3-6.7-72.7-37.9-72.7-37.9c-38.7-29.3,0-15.4,0-15.4
	c55.3,32,209.8,79.1,209.8,79.1L647,342.6z"/>
<path class="st9" d="M776.6,374.8c-13.3-2.4-22.9,4.1-22.9,4.1c-0.3,7.9-3.7,9.7-3.7,9.7c-4.3-2-4.8-10.6-4.6-17
	c0.1-4.1,0.6-7.3,0.6-7.3c-2.2-1.5-2.3,4.4-2.2,7.8c0,1.3,0.1,2.2,0.1,2.2c-3.8,14.3-8.4,0-8.4,0s4.2-3.8,2.7-14.3
	c0,0-4.3,1.2-2.7,14.3c-8.2-2.3,0.5-17.8,0.5-17.8c-8-2.5-17.5,7.8-17.5,7.8c-3.8,1.6-5.9-3.2-5.9-3.2l4-4.7l1.3-0.4l22.4-6.6
	c5,2.2,26.3,0,26.3,0l9-4.1c-1.2,9-0.3,20.1,0.9,29.2C776.6,374.7,776.6,374.8,776.6,374.8z"/>
<path class="st1" d="M735.5,374.3c-1.7-13.2,2.7-14.3,2.7-14.3C739.7,370.5,735.5,374.3,735.5,374.3z"/>
<path d="M847.4,181l-0.5,1c-8.6,0-11.5-10.2-11.5-10.2l0.7-1C839.6,180.6,847.4,181,847.4,181z"/>
<path d="M896.5,204.5l-0.4,1c-15.8,5.2-19.2-8.5-19.2-8.5l0.6-0.9C882.2,209.1,896.5,204.5,896.5,204.5z"/>
<path class="st8" d="M949.9,265.7c-46.2,26-48.1,57.8-48.1,57.8h-1.1c6.8-37.8,48.8-58.6,48.8-58.6l0,0l0.3,0.6L949.9,265.7z"/>
<path class="st1" d="M960.1,155.5h-9.6c0,0-0.3-3.4-5.7-5.2l3.3-7.5c0,0,6.4-0.3,9.8,4.5c0,0,0,0,0,0c0.9,1.2,1.6,2.7,1.9,4.6
	c0,0,0,0.1,0,0.1c0,0,0,0,0,0c0,0,0,0.1,0,0.1C960,153.1,960.1,154.2,960.1,155.5z"/>
<path class="st1" d="M746,364.3c0,0-0.5,3.2-0.6,7.3l-1.6,0.5C743.7,368.7,743.8,362.8,746,364.3z"/>
<path d="M854.4,177.8l-0.3,0.3l-0.5,0.5c-3.1-16-13.3-16.4-13.3-16.4l1.6-1.4C842,160.8,852.2,162,854.4,177.8z"/>
<path class="st0" d="M908.7,187.3c0,0-10.7-10.4-23.4-5.6c0,0-13.9,3.4-14.4-7.4c0,0,3.6,4.3,15.9-2.2c0,0,16.1-10.5,20.6,5.5
	C907.4,177.6,909.3,184.7,908.7,187.3z"/>
<path d="M863.8,203.3c4.3-12.5-7.2-12-7.2-12v1.3c0,0,9.7-0.9,6.2,10L863.8,203.3"/>
<path d="M843.2,191.8c0,0,3.7-5,12.2-9.3c8.4-5.7,7.3-10.2,9.4-18.3h1.1c0,0-1.4,10.2-3.1,12.2c0,0-1.8,4.6-6.8,7.4
	c0,0-7.1,3.2-12.9,9.7V191.8z"/>
</svg>
