<?xml version="1.0" encoding="utf-8"?>
<!-- Generator: Adobe Illustrator 21.0.2, SVG Export Plug-In . SVG Version: 6.00 Build 0)  -->
<svg version="1.1" id="Layer_1" xmlns="http://www.w3.org/2000/svg" xmlns:xlink="http://www.w3.org/1999/xlink" x="0px" y="0px"
	 viewBox="0 0 1280 720" style="enable-background:new 0 0 1280 720;" xml:space="preserve">
<style type="text/css">
	.st0{fill:#FDC4A1;}
	.st1{fill:#FFFFFF;}
	.st2{fill:#2587C9;}
	.st3{fill:#E4E4E4;}
	.st4{fill:#D62329;}
	.st5{fill:#191919;}
</style>
<path class="st0" d="M503.3,295.2c-0.9,39.8-30.2,67.8-69.1,68.2c-45.4,0.6-82.4-23.7-74.4-70.8c3-17.5,8.2-33.2,17.8-45.3
	c0,0,57,14.9,104.3-4.9C495.7,257.3,503.7,277.6,503.3,295.2z"/>
<path d="M325.5,254.1V236l39.3,36.4c0,0-4.3,13.2-5.3,21.5L325.5,254.1z"/>
<path d="M353.8,287.3c0,0-23.3,8.7-28.3,19.2c0,0-5.5,2-4-29C321.5,277.5,323.6,269.1,353.8,287.3z"/>
<path d="M353.8,287.3c0,0-13.3,36.2-5.8,43.7l14.3-3.6c0,0-6-18.8-2.8-33.4L353.8,287.3z"/>
<ellipse class="st1" cx="434.8" cy="289.3" rx="8.2" ry="13.7"/>
<ellipse transform="matrix(0.1629 -0.9866 0.9866 0.1629 108.0543 712.6006)" class="st1" cx="474" cy="292.6" rx="14.6" ry="9"/>
<path class="st2" d="M426.5,286.5c0,0,15.4,4.9,16.5,0.4C444.2,281.9,431.5,263.7,426.5,286.5z"/>
<path class="st2" d="M464.8,291.1c0,0,13.8,2.7,18.6-2.6c0,0-1.4-10.4-7-10.2C476.3,278.2,467.5,278.2,464.8,291.1z"/>
<path d="M381,350.5c0,0-59,66.8-30.3,132.1c0,0,38.7,29.3,99,20.7c0,0,76-57.5,18.1-147.1C467.8,356.3,426.6,379.7,381,350.5z"/>
<path class="st3" d="M330.7,364.7l-16-19.4c0,0,1-5.5,8-8.1l18.7,18.1L330.7,364.7z"/>
<path d="M323.8,375.2l-2.7-2.5c0,0,29.5-29.2,32.8-26.5l1.8,2.2l-22,18.4L323.8,375.2z"/>
<path class="st3" d="M355.8,390.4l-22-23.7l8.9-7.5l17.9,21.4C360.7,380.7,357.2,387.5,355.8,390.4z"/>
<path class="st0" d="M567.2,401.8v9.2c0,0-2.8,9-20,7.8l-14.4-5.7c0,0-2.1,1.4-0.9-3.8l-1.8-7.5c0,0,17.5-27.2,30.2-18.5v8.4
	l5.2-1.2v3.6l-3.2,7.8H567.2z"/>
<polygon points="532.9,413.1 485.5,415.8 483.1,394.6 530.2,401.8 "/>
<path class="st4" d="M342.8,443.8c0,0,92.9,27.6,139.8,14.7l-12,22.1c0,0-107.5-3.2-126.2-18.5L342.8,443.8z"/>
<path d="M431.8,504.9c0,0,16.6,23.7,3.3,100.7l-1.7,12.9c0,0,40.9,6.6,57.6-6.6c0,0-7.8-22.9-42.2-14.3c0,0,13.1-53.9-0.2-95.6
	L431.8,504.9z"/>
<path d="M368.2,491.1c0,0,2.8,28.8-46.3,89.5l-7.8,10.5c0,0,32.4,25.7,53.5,22.4c0,0,4.4-23.8-29.9-33.1c0,0,37.8-40.6,46.6-83.5
	L368.2,491.1z"/>
<path d="M360.2,287.3c0,0,22.4,17.5,42.3,22.5c39.8,9.9,95.8,3.8,99.9,9.6c0,0-25.2,57.5-87.3,46.6
	C415.1,366,346.4,359.5,360.2,287.3z"/>
<path d="M418.5,276.9l26.8,3.7l-0.1-5.3c0,0-7.3-0.6-15.6-0.3c-4.2,0.1-11,0.5-11,0.5L418.5,276.9z"/>
<path d="M465.9,283.8l26.2-6.8l-0.8-1.8c0,0-8.9,1-11.8,1.3c-3.9,0.4-15.1,2.2-15.1,2.2L465.9,283.8z"/>
<g>
	<g>
		<polygon class="st4" points="415.7,453.1 423.3,453.6 475.9,510.5 462.8,520.2 421.1,473.4 		"/>
		<path class="st4" d="M415.7,453.1c0,0-53.9,51.5-56.9,70.6c0,0,1.6,7.7,10.6,6.2l34.5-45.9c0,0,14,0.5,19.9-7.5L415.7,453.1z"/>
		<line class="st4" x1="402" y1="466.8" x2="403.9" y2="483.9"/>
		<line class="st4" x1="431.8" y1="462.8" x2="422.2" y2="471.8"/>
	</g>
</g>
<path class="st0" d="M520.8,479.3l0.7,4.4l-3.2,3.8l-5.5-6.5l2.5,10.2h-5l-4.5-3.5l-5.5,0.2l-8.2-11.8l3.3-16.9
	c0,0,10-10.7,20.7-5.3c0,0,9.3,12,3.3,16.7l4,4.2L520.8,479.3z"/>
<polyline class="st5" points="377.3,404.7 495.3,459.3 492,476.2 380,430.5 "/>
<path d="M489.6,250.9c-47.9,23.7-124.7,21.6-124.7,21.6c8.9-32.4,36.8-46.9,65.2-50.2C449.8,220,472.4,229.4,489.6,250.9z"/>
<circle class="st1" cx="433.4" cy="283.6" r="1.9"/>
<circle class="st1" cx="479.1" cy="285.7" r="1.9"/>
</svg>
